<svg width="43" height="43" viewBox="0 0 32 32" fill="none" xmlns="http://www.w3.org/2000/svg">
<path fill-rule="evenodd" clip-rule="evenodd" d="M0 32.0006C8.56594 18.0894 3.56914 4.87053 0 0C5.41455 3.68309 10.6669 4.64914 13.4451 4.83028C16.6087 13.9595 15.0675 23.4671 13.7493 27.1703C8.83363 27.0737 2.43351 30.4106 0 32.0006ZM11.0136 8.03036C9.79687 7.98205 7.78923 7.4467 6.9375 7.18506C9.07899 13.8025 7.82979 21.9375 6.9375 25.1778C8.44627 24.405 10.2836 24.2118 11.0136 24.2118C12.8631 16.7732 11.7842 10.3247 11.0136 8.03036ZM16.668 4.95104V18.5544L20.5007 27.2911C22.5692 27.593 28.0446 29.0421 31.9382 31.9402C28.3488 26.8282 23.3844 13.1384 31.9991 0C31.9991 0 30.2747 1.13406 29.3222 1.63022C28.3488 2.13728 27.0712 2.71703 27.0712 2.71703C25.1244 5.31331 22.0582 13.5731 25.1244 25.1175L22.7517 24.4533L19.8924 17.7695V4.64914C19.4665 4.79003 18.2254 4.95104 16.668 4.95104Z" fill="white"/>
</svg>
