<svg width="100" height="100" viewBox="0 0 100 100" fill="none" xmlns="http://www.w3.org/2000/svg">
<g clip-path="url(#clip0_807_6)">
<path d="M4.37114e-06 50C3.21184e-06 63.2608 5.26785 75.9785 14.6447 85.3553C24.0215 94.7322 36.7392 100 50 100C63.2608 100 75.9785 94.7322 85.3553 85.3553C94.7322 75.9785 100 63.2608 100 50L50 50L4.37114e-06 50Z" fill="#FFE600"/>
<path d="M100 50C100 36.7392 94.7322 24.0215 85.3553 14.6447C75.9785 5.26786 63.2608 1.2062e-05 50 8.74228e-06C36.7392 5.42252e-06 24.0215 5.26784 14.6447 14.6447C5.26784 24.0215 -4.42135e-06 36.7392 -8.74228e-06 50L50 50L100 50Z" fill="#0066FF"/>
</g>
<defs>
<clipPath id="clip0_807_6">
<rect width="100" height="100" fill="white" transform="translate(100 100) rotate(-180)"/>
</clipPath>
</defs>
</svg>
